<mxfile host="app.diagrams.net" modified="2023-04-13T12:24:02.711Z" agent="Mozilla/5.0 (Windows NT 10.0; Win64; x64) AppleWebKit/537.36 (KHTML, like Gecko) Chrome/112.0.0.0 Safari/537.36" etag="BI-pKiyiytdQV3NzgxsE" version="21.1.7" type="github">
  <diagram name="Page-1" id="FpSGoZCRrTCGztzuRauM">
    <mxGraphModel dx="3457" dy="1389" grid="1" gridSize="10" guides="1" tooltips="1" connect="1" arrows="1" fold="1" page="1" pageScale="1" pageWidth="850" pageHeight="1100" math="0" shadow="0">
      <root>
        <mxCell id="0" />
        <mxCell id="1" parent="0" />
        <mxCell id="YJeCKRf9xk3jwFqe75ar-3" style="edgeStyle=orthogonalEdgeStyle;rounded=0;orthogonalLoop=1;jettySize=auto;html=1;exitX=0.5;exitY=1;exitDx=0;exitDy=0;entryX=0.5;entryY=0;entryDx=0;entryDy=0;entryPerimeter=0;" edge="1" parent="1" source="YJeCKRf9xk3jwFqe75ar-1" target="YJeCKRf9xk3jwFqe75ar-2">
          <mxGeometry relative="1" as="geometry" />
        </mxCell>
        <mxCell id="YJeCKRf9xk3jwFqe75ar-1" value="Start" style="rounded=1;whiteSpace=wrap;html=1;absoluteArcSize=1;arcSize=14;strokeWidth=2;fillColor=#dae8fc;strokeColor=#6c8ebf;" vertex="1" parent="1">
          <mxGeometry x="360" y="40" width="130" height="70" as="geometry" />
        </mxCell>
        <mxCell id="YJeCKRf9xk3jwFqe75ar-5" style="edgeStyle=orthogonalEdgeStyle;rounded=0;orthogonalLoop=1;jettySize=auto;html=1;exitX=0.5;exitY=1;exitDx=0;exitDy=0;exitPerimeter=0;" edge="1" parent="1" source="YJeCKRf9xk3jwFqe75ar-2" target="YJeCKRf9xk3jwFqe75ar-4">
          <mxGeometry relative="1" as="geometry" />
        </mxCell>
        <mxCell id="YJeCKRf9xk3jwFqe75ar-2" value="Splash" style="strokeWidth=2;html=1;shape=mxgraph.flowchart.terminator;whiteSpace=wrap;fillColor=#dae8fc;strokeColor=#6c8ebf;" vertex="1" parent="1">
          <mxGeometry x="360" y="180" width="130" height="60" as="geometry" />
        </mxCell>
        <mxCell id="YJeCKRf9xk3jwFqe75ar-11" style="edgeStyle=orthogonalEdgeStyle;rounded=0;orthogonalLoop=1;jettySize=auto;html=1;exitX=0.5;exitY=1;exitDx=0;exitDy=0;exitPerimeter=0;entryX=0.5;entryY=0;entryDx=0;entryDy=0;entryPerimeter=0;" edge="1" parent="1" source="YJeCKRf9xk3jwFqe75ar-4" target="YJeCKRf9xk3jwFqe75ar-9">
          <mxGeometry relative="1" as="geometry">
            <Array as="points">
              <mxPoint x="425" y="400" />
              <mxPoint x="105" y="400" />
            </Array>
          </mxGeometry>
        </mxCell>
        <mxCell id="YJeCKRf9xk3jwFqe75ar-12" style="edgeStyle=orthogonalEdgeStyle;rounded=0;orthogonalLoop=1;jettySize=auto;html=1;exitX=0.5;exitY=1;exitDx=0;exitDy=0;exitPerimeter=0;entryX=0.5;entryY=0;entryDx=0;entryDy=0;entryPerimeter=0;" edge="1" parent="1" source="YJeCKRf9xk3jwFqe75ar-4">
          <mxGeometry relative="1" as="geometry">
            <mxPoint x="745" y="510" as="targetPoint" />
            <Array as="points">
              <mxPoint x="425" y="400" />
              <mxPoint x="745" y="400" />
            </Array>
          </mxGeometry>
        </mxCell>
        <mxCell id="YJeCKRf9xk3jwFqe75ar-4" value="Login" style="strokeWidth=2;html=1;shape=mxgraph.flowchart.terminator;whiteSpace=wrap;fillColor=#dae8fc;strokeColor=#6c8ebf;" vertex="1" parent="1">
          <mxGeometry x="360" y="310" width="130" height="60" as="geometry" />
        </mxCell>
        <mxCell id="YJeCKRf9xk3jwFqe75ar-22" style="edgeStyle=orthogonalEdgeStyle;rounded=0;orthogonalLoop=1;jettySize=auto;html=1;exitX=0.5;exitY=1;exitDx=0;exitDy=0;exitPerimeter=0;entryX=0.5;entryY=0;entryDx=0;entryDy=0;entryPerimeter=0;" edge="1" parent="1" source="YJeCKRf9xk3jwFqe75ar-9" target="YJeCKRf9xk3jwFqe75ar-21">
          <mxGeometry relative="1" as="geometry" />
        </mxCell>
        <mxCell id="YJeCKRf9xk3jwFqe75ar-9" value="New here? Sign up" style="strokeWidth=2;html=1;shape=mxgraph.flowchart.terminator;whiteSpace=wrap;fillColor=#f8cecc;strokeColor=#b85450;" vertex="1" parent="1">
          <mxGeometry x="40" y="510" width="130" height="60" as="geometry" />
        </mxCell>
        <mxCell id="YJeCKRf9xk3jwFqe75ar-13" value="Name team&lt;br&gt;Total player&lt;br&gt;Email of each member team&lt;br&gt;Each of member infor" style="text;html=1;align=center;verticalAlign=middle;resizable=0;points=[];autosize=1;strokeColor=none;fillColor=none;" vertex="1" parent="1">
          <mxGeometry x="660" y="410" width="170" height="70" as="geometry" />
        </mxCell>
        <mxCell id="YJeCKRf9xk3jwFqe75ar-28" style="edgeStyle=orthogonalEdgeStyle;rounded=0;orthogonalLoop=1;jettySize=auto;html=1;exitX=0.5;exitY=1;exitDx=0;exitDy=0;exitPerimeter=0;entryX=0.5;entryY=0;entryDx=0;entryDy=0;entryPerimeter=0;" edge="1" parent="1" source="YJeCKRf9xk3jwFqe75ar-21" target="YJeCKRf9xk3jwFqe75ar-25">
          <mxGeometry relative="1" as="geometry" />
        </mxCell>
        <mxCell id="YJeCKRf9xk3jwFqe75ar-21" value="Sign up" style="strokeWidth=2;html=1;shape=mxgraph.flowchart.terminator;whiteSpace=wrap;fillColor=#dae8fc;strokeColor=#6c8ebf;" vertex="1" parent="1">
          <mxGeometry x="40" y="660" width="130" height="60" as="geometry" />
        </mxCell>
        <mxCell id="YJeCKRf9xk3jwFqe75ar-23" value="Name team&lt;br&gt;Total player&lt;br&gt;Email of each member team&lt;br&gt;Each of member infor" style="text;html=1;align=center;verticalAlign=middle;resizable=0;points=[];autosize=1;strokeColor=none;fillColor=none;" vertex="1" parent="1">
          <mxGeometry x="20" y="760" width="170" height="70" as="geometry" />
        </mxCell>
        <mxCell id="YJeCKRf9xk3jwFqe75ar-29" style="edgeStyle=orthogonalEdgeStyle;rounded=0;orthogonalLoop=1;jettySize=auto;html=1;exitX=0;exitY=0.5;exitDx=0;exitDy=0;exitPerimeter=0;entryX=0.008;entryY=0.383;entryDx=0;entryDy=0;entryPerimeter=0;" edge="1" parent="1" source="YJeCKRf9xk3jwFqe75ar-25" target="YJeCKRf9xk3jwFqe75ar-21">
          <mxGeometry relative="1" as="geometry">
            <Array as="points">
              <mxPoint y="930" />
              <mxPoint y="683" />
            </Array>
          </mxGeometry>
        </mxCell>
        <mxCell id="YJeCKRf9xk3jwFqe75ar-47" style="edgeStyle=orthogonalEdgeStyle;rounded=0;orthogonalLoop=1;jettySize=auto;html=1;exitX=1;exitY=0.5;exitDx=0;exitDy=0;exitPerimeter=0;entryX=0;entryY=0.5;entryDx=0;entryDy=0;entryPerimeter=0;" edge="1" parent="1" source="YJeCKRf9xk3jwFqe75ar-25" target="YJeCKRf9xk3jwFqe75ar-44">
          <mxGeometry relative="1" as="geometry" />
        </mxCell>
        <mxCell id="YJeCKRf9xk3jwFqe75ar-25" value="Valid information?" style="strokeWidth=2;html=1;shape=mxgraph.flowchart.decision;whiteSpace=wrap;" vertex="1" parent="1">
          <mxGeometry x="50" y="880" width="110" height="100" as="geometry" />
        </mxCell>
        <mxCell id="YJeCKRf9xk3jwFqe75ar-30" value="No" style="text;html=1;align=center;verticalAlign=middle;resizable=0;points=[];autosize=1;strokeColor=none;fillColor=none;" vertex="1" parent="1">
          <mxGeometry x="10" y="900" width="40" height="30" as="geometry" />
        </mxCell>
        <mxCell id="YJeCKRf9xk3jwFqe75ar-32" value="Yes" style="text;html=1;align=center;verticalAlign=middle;resizable=0;points=[];autosize=1;strokeColor=none;fillColor=none;" vertex="1" parent="1">
          <mxGeometry x="160" y="900" width="40" height="30" as="geometry" />
        </mxCell>
        <mxCell id="YJeCKRf9xk3jwFqe75ar-37" value="Login" style="strokeWidth=2;html=1;shape=mxgraph.flowchart.terminator;whiteSpace=wrap;fillColor=#f8cecc;strokeColor=#b85450;" vertex="1" parent="1">
          <mxGeometry x="680" y="510" width="130" height="60" as="geometry" />
        </mxCell>
        <mxCell id="YJeCKRf9xk3jwFqe75ar-42" style="edgeStyle=orthogonalEdgeStyle;rounded=0;orthogonalLoop=1;jettySize=auto;html=1;exitX=0;exitY=0.5;exitDx=0;exitDy=0;exitPerimeter=0;entryX=0;entryY=0.5;entryDx=0;entryDy=0;entryPerimeter=0;" edge="1" parent="1" source="YJeCKRf9xk3jwFqe75ar-38" target="YJeCKRf9xk3jwFqe75ar-37">
          <mxGeometry relative="1" as="geometry" />
        </mxCell>
        <mxCell id="YJeCKRf9xk3jwFqe75ar-45" style="edgeStyle=orthogonalEdgeStyle;rounded=0;orthogonalLoop=1;jettySize=auto;html=1;exitX=0.5;exitY=1;exitDx=0;exitDy=0;exitPerimeter=0;entryX=0.5;entryY=0;entryDx=0;entryDy=0;entryPerimeter=0;" edge="1" parent="1" source="YJeCKRf9xk3jwFqe75ar-38" target="YJeCKRf9xk3jwFqe75ar-44">
          <mxGeometry relative="1" as="geometry" />
        </mxCell>
        <mxCell id="YJeCKRf9xk3jwFqe75ar-38" value="Valid information?" style="strokeWidth=2;html=1;shape=mxgraph.flowchart.decision;whiteSpace=wrap;" vertex="1" parent="1">
          <mxGeometry x="690" y="640" width="110" height="100" as="geometry" />
        </mxCell>
        <mxCell id="YJeCKRf9xk3jwFqe75ar-43" value="No" style="text;html=1;align=center;verticalAlign=middle;resizable=0;points=[];autosize=1;strokeColor=none;fillColor=none;" vertex="1" parent="1">
          <mxGeometry x="660" y="660" width="40" height="30" as="geometry" />
        </mxCell>
        <mxCell id="YJeCKRf9xk3jwFqe75ar-52" style="edgeStyle=orthogonalEdgeStyle;rounded=0;orthogonalLoop=1;jettySize=auto;html=1;exitX=0.5;exitY=1;exitDx=0;exitDy=0;exitPerimeter=0;entryX=0.5;entryY=0;entryDx=0;entryDy=0;entryPerimeter=0;" edge="1" parent="1" source="YJeCKRf9xk3jwFqe75ar-44" target="YJeCKRf9xk3jwFqe75ar-51">
          <mxGeometry relative="1" as="geometry" />
        </mxCell>
        <mxCell id="YJeCKRf9xk3jwFqe75ar-53" style="edgeStyle=orthogonalEdgeStyle;rounded=0;orthogonalLoop=1;jettySize=auto;html=1;exitX=0.5;exitY=1;exitDx=0;exitDy=0;exitPerimeter=0;" edge="1" parent="1" source="YJeCKRf9xk3jwFqe75ar-44" target="YJeCKRf9xk3jwFqe75ar-50">
          <mxGeometry relative="1" as="geometry" />
        </mxCell>
        <mxCell id="YJeCKRf9xk3jwFqe75ar-55" style="edgeStyle=orthogonalEdgeStyle;rounded=0;orthogonalLoop=1;jettySize=auto;html=1;exitX=0.5;exitY=1;exitDx=0;exitDy=0;exitPerimeter=0;" edge="1" parent="1" source="YJeCKRf9xk3jwFqe75ar-44" target="YJeCKRf9xk3jwFqe75ar-49">
          <mxGeometry relative="1" as="geometry" />
        </mxCell>
        <mxCell id="YJeCKRf9xk3jwFqe75ar-56" style="edgeStyle=orthogonalEdgeStyle;rounded=0;orthogonalLoop=1;jettySize=auto;html=1;exitX=0.5;exitY=1;exitDx=0;exitDy=0;exitPerimeter=0;" edge="1" parent="1" source="YJeCKRf9xk3jwFqe75ar-44" target="YJeCKRf9xk3jwFqe75ar-48">
          <mxGeometry relative="1" as="geometry" />
        </mxCell>
        <mxCell id="YJeCKRf9xk3jwFqe75ar-44" value="Home" style="strokeWidth=2;html=1;shape=mxgraph.flowchart.terminator;whiteSpace=wrap;fillColor=#dae8fc;strokeColor=#6c8ebf;" vertex="1" parent="1">
          <mxGeometry x="680" y="830" width="130" height="60" as="geometry" />
        </mxCell>
        <mxCell id="YJeCKRf9xk3jwFqe75ar-46" value="Yes" style="text;html=1;align=center;verticalAlign=middle;resizable=0;points=[];autosize=1;strokeColor=none;fillColor=none;" vertex="1" parent="1">
          <mxGeometry x="750" y="740" width="40" height="30" as="geometry" />
        </mxCell>
        <mxCell id="YJeCKRf9xk3jwFqe75ar-68" style="edgeStyle=orthogonalEdgeStyle;rounded=0;orthogonalLoop=1;jettySize=auto;html=1;exitX=0.5;exitY=1;exitDx=0;exitDy=0;exitPerimeter=0;" edge="1" parent="1" source="YJeCKRf9xk3jwFqe75ar-48" target="YJeCKRf9xk3jwFqe75ar-67">
          <mxGeometry relative="1" as="geometry" />
        </mxCell>
        <mxCell id="YJeCKRf9xk3jwFqe75ar-48" value="Match" style="strokeWidth=2;html=1;shape=mxgraph.flowchart.terminator;whiteSpace=wrap;fillColor=#f8cecc;strokeColor=#b85450;" vertex="1" parent="1">
          <mxGeometry x="1060" y="1030" width="130" height="60" as="geometry" />
        </mxCell>
        <mxCell id="YJeCKRf9xk3jwFqe75ar-65" style="edgeStyle=orthogonalEdgeStyle;rounded=0;orthogonalLoop=1;jettySize=auto;html=1;exitX=0.5;exitY=1;exitDx=0;exitDy=0;exitPerimeter=0;" edge="1" parent="1" source="YJeCKRf9xk3jwFqe75ar-49">
          <mxGeometry relative="1" as="geometry">
            <mxPoint x="885.4000000000001" y="1180" as="targetPoint" />
          </mxGeometry>
        </mxCell>
        <mxCell id="YJeCKRf9xk3jwFqe75ar-49" value="Event" style="strokeWidth=2;html=1;shape=mxgraph.flowchart.terminator;whiteSpace=wrap;fillColor=#f8cecc;strokeColor=#b85450;" vertex="1" parent="1">
          <mxGeometry x="820" y="1030" width="130" height="60" as="geometry" />
        </mxCell>
        <mxCell id="YJeCKRf9xk3jwFqe75ar-59" style="edgeStyle=orthogonalEdgeStyle;rounded=0;orthogonalLoop=1;jettySize=auto;html=1;exitX=0.5;exitY=1;exitDx=0;exitDy=0;exitPerimeter=0;entryX=0.5;entryY=0;entryDx=0;entryDy=0;entryPerimeter=0;" edge="1" parent="1" source="YJeCKRf9xk3jwFqe75ar-50" target="YJeCKRf9xk3jwFqe75ar-58">
          <mxGeometry relative="1" as="geometry" />
        </mxCell>
        <mxCell id="YJeCKRf9xk3jwFqe75ar-50" value="Profile" style="strokeWidth=2;html=1;shape=mxgraph.flowchart.terminator;whiteSpace=wrap;fillColor=#f8cecc;strokeColor=#b85450;" vertex="1" parent="1">
          <mxGeometry x="550" y="1030" width="130" height="60" as="geometry" />
        </mxCell>
        <mxCell id="YJeCKRf9xk3jwFqe75ar-57" style="edgeStyle=orthogonalEdgeStyle;rounded=0;orthogonalLoop=1;jettySize=auto;html=1;exitX=0;exitY=0.5;exitDx=0;exitDy=0;exitPerimeter=0;entryX=0;entryY=0.5;entryDx=0;entryDy=0;entryPerimeter=0;" edge="1" parent="1" source="YJeCKRf9xk3jwFqe75ar-51" target="YJeCKRf9xk3jwFqe75ar-4">
          <mxGeometry relative="1" as="geometry">
            <Array as="points">
              <mxPoint x="-110" y="1060" />
              <mxPoint x="-110" y="340" />
            </Array>
          </mxGeometry>
        </mxCell>
        <mxCell id="YJeCKRf9xk3jwFqe75ar-51" value="Log out" style="strokeWidth=2;html=1;shape=mxgraph.flowchart.terminator;whiteSpace=wrap;fillColor=#f8cecc;strokeColor=#b85450;" vertex="1" parent="1">
          <mxGeometry x="320" y="1030" width="130" height="60" as="geometry" />
        </mxCell>
        <mxCell id="YJeCKRf9xk3jwFqe75ar-61" style="edgeStyle=orthogonalEdgeStyle;rounded=0;orthogonalLoop=1;jettySize=auto;html=1;exitX=0.5;exitY=1;exitDx=0;exitDy=0;exitPerimeter=0;entryX=0.5;entryY=0;entryDx=0;entryDy=0;entryPerimeter=0;" edge="1" parent="1" source="YJeCKRf9xk3jwFqe75ar-58" target="YJeCKRf9xk3jwFqe75ar-60">
          <mxGeometry relative="1" as="geometry" />
        </mxCell>
        <mxCell id="YJeCKRf9xk3jwFqe75ar-58" value="My profile" style="strokeWidth=2;html=1;shape=mxgraph.flowchart.terminator;whiteSpace=wrap;fillColor=#dae8fc;strokeColor=#6c8ebf;" vertex="1" parent="1">
          <mxGeometry x="550" y="1180" width="130" height="60" as="geometry" />
        </mxCell>
        <mxCell id="YJeCKRf9xk3jwFqe75ar-64" style="edgeStyle=orthogonalEdgeStyle;rounded=0;orthogonalLoop=1;jettySize=auto;html=1;exitX=0.5;exitY=1;exitDx=0;exitDy=0;exitPerimeter=0;entryX=0.5;entryY=0;entryDx=0;entryDy=0;entryPerimeter=0;" edge="1" parent="1" source="YJeCKRf9xk3jwFqe75ar-60" target="YJeCKRf9xk3jwFqe75ar-63">
          <mxGeometry relative="1" as="geometry" />
        </mxCell>
        <mxCell id="YJeCKRf9xk3jwFqe75ar-60" value="Edit profile" style="strokeWidth=2;html=1;shape=mxgraph.flowchart.terminator;whiteSpace=wrap;fillColor=#dae8fc;strokeColor=#6c8ebf;" vertex="1" parent="1">
          <mxGeometry x="550" y="1330" width="130" height="60" as="geometry" />
        </mxCell>
        <mxCell id="YJeCKRf9xk3jwFqe75ar-63" value="Exit" style="strokeWidth=2;html=1;shape=mxgraph.flowchart.terminator;whiteSpace=wrap;fillColor=#f8cecc;strokeColor=#b85450;" vertex="1" parent="1">
          <mxGeometry x="550" y="1480" width="130" height="60" as="geometry" />
        </mxCell>
        <mxCell id="YJeCKRf9xk3jwFqe75ar-72" style="edgeStyle=orthogonalEdgeStyle;rounded=0;orthogonalLoop=1;jettySize=auto;html=1;exitX=0.5;exitY=1;exitDx=0;exitDy=0;exitPerimeter=0;" edge="1" parent="1" source="YJeCKRf9xk3jwFqe75ar-66" target="YJeCKRf9xk3jwFqe75ar-70">
          <mxGeometry relative="1" as="geometry" />
        </mxCell>
        <mxCell id="YJeCKRf9xk3jwFqe75ar-66" value="Event details" style="strokeWidth=2;html=1;shape=mxgraph.flowchart.terminator;whiteSpace=wrap;fillColor=#dae8fc;strokeColor=#6c8ebf;" vertex="1" parent="1">
          <mxGeometry x="820" y="1180" width="130" height="60" as="geometry" />
        </mxCell>
        <mxCell id="YJeCKRf9xk3jwFqe75ar-73" style="edgeStyle=orthogonalEdgeStyle;rounded=0;orthogonalLoop=1;jettySize=auto;html=1;exitX=0.5;exitY=1;exitDx=0;exitDy=0;exitPerimeter=0;entryX=0.5;entryY=0;entryDx=0;entryDy=0;entryPerimeter=0;" edge="1" parent="1" source="YJeCKRf9xk3jwFqe75ar-67" target="YJeCKRf9xk3jwFqe75ar-71">
          <mxGeometry relative="1" as="geometry" />
        </mxCell>
        <mxCell id="YJeCKRf9xk3jwFqe75ar-67" value="Match details" style="strokeWidth=2;html=1;shape=mxgraph.flowchart.terminator;whiteSpace=wrap;fillColor=#dae8fc;strokeColor=#6c8ebf;" vertex="1" parent="1">
          <mxGeometry x="1060" y="1180" width="130" height="60" as="geometry" />
        </mxCell>
        <mxCell id="YJeCKRf9xk3jwFqe75ar-69" value="&lt;span style=&quot;font-size: 15px;&quot;&gt;&lt;b&gt;USER&lt;/b&gt;&lt;/span&gt;" style="text;html=1;align=center;verticalAlign=middle;resizable=0;points=[];autosize=1;strokeColor=none;fillColor=none;" vertex="1" parent="1">
          <mxGeometry x="390" width="70" height="30" as="geometry" />
        </mxCell>
        <mxCell id="YJeCKRf9xk3jwFqe75ar-75" style="edgeStyle=orthogonalEdgeStyle;rounded=0;orthogonalLoop=1;jettySize=auto;html=1;exitX=0.5;exitY=1;exitDx=0;exitDy=0;exitPerimeter=0;" edge="1" parent="1" source="YJeCKRf9xk3jwFqe75ar-70" target="YJeCKRf9xk3jwFqe75ar-74">
          <mxGeometry relative="1" as="geometry" />
        </mxCell>
        <mxCell id="YJeCKRf9xk3jwFqe75ar-70" value="View event details" style="strokeWidth=2;html=1;shape=mxgraph.flowchart.terminator;whiteSpace=wrap;fillColor=#dae8fc;strokeColor=#6c8ebf;" vertex="1" parent="1">
          <mxGeometry x="820" y="1330" width="130" height="60" as="geometry" />
        </mxCell>
        <mxCell id="YJeCKRf9xk3jwFqe75ar-77" style="edgeStyle=orthogonalEdgeStyle;rounded=0;orthogonalLoop=1;jettySize=auto;html=1;exitX=0.5;exitY=1;exitDx=0;exitDy=0;exitPerimeter=0;" edge="1" parent="1" source="YJeCKRf9xk3jwFqe75ar-71" target="YJeCKRf9xk3jwFqe75ar-76">
          <mxGeometry relative="1" as="geometry" />
        </mxCell>
        <mxCell id="YJeCKRf9xk3jwFqe75ar-71" value="View event details" style="strokeWidth=2;html=1;shape=mxgraph.flowchart.terminator;whiteSpace=wrap;fillColor=#dae8fc;strokeColor=#6c8ebf;" vertex="1" parent="1">
          <mxGeometry x="1060" y="1330" width="130" height="60" as="geometry" />
        </mxCell>
        <mxCell id="YJeCKRf9xk3jwFqe75ar-74" value="Exit" style="strokeWidth=2;html=1;shape=mxgraph.flowchart.terminator;whiteSpace=wrap;fillColor=#f8cecc;strokeColor=#b85450;" vertex="1" parent="1">
          <mxGeometry x="820" y="1480" width="130" height="60" as="geometry" />
        </mxCell>
        <mxCell id="YJeCKRf9xk3jwFqe75ar-76" value="Exit" style="strokeWidth=2;html=1;shape=mxgraph.flowchart.terminator;whiteSpace=wrap;fillColor=#f8cecc;strokeColor=#b85450;" vertex="1" parent="1">
          <mxGeometry x="1060" y="1480" width="130" height="60" as="geometry" />
        </mxCell>
      </root>
    </mxGraphModel>
  </diagram>
</mxfile>
